<svg width="101" height="66" viewBox="0 0 101 66" fill="none" xmlns="http://www.w3.org/2000/svg">
<path d="M8.84 32.82C8.44 33.7267 8.01333 34.5133 7.56 35.18C7.12 35.8333 6.55333 36.3333 5.86 36.68C5.16667 37.0267 4.26 37.2 3.14 37.2C2.79333 37.2 2.41333 37.1733 2 37.12C1.58667 37.0667 1.20667 36.9933 0.86 36.9V34.3C1.18 34.4333 1.53333 34.5267 1.92 34.58C2.30667 34.6333 2.66667 34.66 3 34.66C3.44 34.66 3.79333 34.5867 4.06 34.44C4.34 34.2933 4.56 34.0933 4.72 33.84C4.89333 33.5733 5.03333 33.2867 5.14 32.98L0.2 22.72H3.4L6.06 28.9C6.12667 29.0333 6.20667 29.2067 6.3 29.42C6.39333 29.6333 6.48667 29.8533 6.58 30.08C6.67333 30.3067 6.74667 30.5067 6.8 30.68H6.9C6.95333 30.52 7.02 30.3267 7.1 30.1C7.19333 29.86 7.28667 29.62 7.38 29.38C7.48667 29.1267 7.58 28.9067 7.66 28.72L10.14 22.72H13.26L8.84 32.82ZM23.8617 28.32H20.2817V37H17.3017V28.32H13.7217V26.08H23.8617V28.32ZM28.7564 30.4C28.7564 30.6267 28.7431 30.9067 28.7164 31.24C28.7031 31.5733 28.6831 31.9133 28.6564 32.26C28.6431 32.6067 28.6231 32.9133 28.5964 33.18C28.5697 33.4467 28.5497 33.6333 28.5364 33.74L33.5764 26.08H37.1564V37H34.2764V32.64C34.2764 32.28 34.2897 31.8867 34.3164 31.46C34.3431 31.02 34.3697 30.6133 34.3964 30.24C34.4364 29.8533 34.4631 29.56 34.4764 29.36L29.4564 37H25.8764V26.08H28.7564V30.4ZM50.0509 37H47.0709V28.32H44.3309C44.1976 29.92 44.0309 31.2867 43.8309 32.42C43.6443 33.54 43.4043 34.4533 43.1109 35.16C42.8309 35.8667 42.4709 36.3867 42.0309 36.72C41.5909 37.04 41.0509 37.2 40.4109 37.2C40.0643 37.2 39.7509 37.1733 39.4709 37.12C39.1909 37.0667 38.9376 36.9867 38.7109 36.88V34.5C38.8576 34.5533 39.0109 34.6 39.1709 34.64C39.3309 34.68 39.4976 34.7 39.6709 34.7C39.8576 34.7 40.0309 34.6267 40.1909 34.48C40.3643 34.3333 40.5243 34.0733 40.6709 33.7C40.8309 33.3267 40.9776 32.8133 41.1109 32.16C41.2443 31.5067 41.3643 30.6867 41.4709 29.7C41.5909 28.7 41.6976 27.4933 41.7909 26.08H50.0509V37ZM58.2416 30.3C59.3616 30.3 60.2882 30.42 61.0216 30.66C61.7549 30.8867 62.2949 31.24 62.6416 31.72C63.0016 32.2 63.1816 32.8 63.1816 33.52C63.1816 34.2267 63.0149 34.84 62.6816 35.36C62.3616 35.88 61.8482 36.2867 61.1416 36.58C60.4349 36.86 59.5082 37 58.3616 37H53.1616V26.08H56.1416V30.3H58.2416ZM60.2016 33.56C60.2016 33.1333 60.0282 32.8267 59.6816 32.64C59.3482 32.4533 58.8482 32.36 58.1816 32.36H56.1416V34.94H58.2216C58.8082 34.94 59.2816 34.8333 59.6416 34.62C60.0149 34.4067 60.2016 34.0533 60.2016 33.56ZM73.4042 29.152C73.4042 27.216 73.6442 25.576 74.1242 24.232C74.6042 22.872 75.3642 21.792 76.4042 20.992C77.4442 20.176 78.8042 19.624 80.4842 19.336C81.3322 19.192 82.1882 19.072 83.0522 18.976C83.9322 18.864 84.8362 18.752 85.7642 18.64L86.1722 21.76C85.7722 21.808 85.3322 21.864 84.8522 21.928C84.3722 21.976 83.8842 22.032 83.3882 22.096C82.9082 22.144 82.4442 22.2 81.9962 22.264C81.5482 22.328 81.1402 22.384 80.7722 22.432C80.1802 22.528 79.6602 22.664 79.2122 22.84C78.7642 23 78.3882 23.232 78.0842 23.536C77.7802 23.84 77.5402 24.256 77.3642 24.784C77.2042 25.296 77.1002 25.96 77.0522 26.776H77.2202C77.4122 26.472 77.6762 26.168 78.0122 25.864C78.3642 25.56 78.7962 25.304 79.3082 25.096C79.8202 24.888 80.4042 24.784 81.0602 24.784C82.1002 24.784 83.0042 25 83.7722 25.432C84.5402 25.864 85.1322 26.504 85.5482 27.352C85.9642 28.2 86.1722 29.256 86.1722 30.52C86.1722 32.008 85.9002 33.248 85.3562 34.24C84.8122 35.232 84.0602 35.984 83.1002 36.496C82.1402 36.992 81.0282 37.24 79.7642 37.24C78.8042 37.24 77.9322 37.064 77.1482 36.712C76.3642 36.36 75.6922 35.84 75.1322 35.152C74.5722 34.464 74.1402 33.616 73.8362 32.608C73.5482 31.6 73.4042 30.448 73.4042 29.152ZM79.9802 34.336C80.4922 34.336 80.9322 34.224 81.3002 34C81.6842 33.776 81.9802 33.408 82.1882 32.896C82.4122 32.384 82.5242 31.696 82.5242 30.832C82.5242 29.792 82.3482 28.968 81.9962 28.36C81.6602 27.736 81.0682 27.424 80.2202 27.424C79.7082 27.424 79.2282 27.552 78.7802 27.808C78.3482 28.048 77.9802 28.328 77.6762 28.648C77.3722 28.952 77.1642 29.216 77.0522 29.44C77.0522 30.064 77.1002 30.672 77.1962 31.264C77.2922 31.84 77.4522 32.36 77.6762 32.824C77.9002 33.288 78.1962 33.656 78.5642 33.928C78.9482 34.2 79.4202 34.336 79.9802 34.336ZM87.2539 23.896H91.1659L93.6379 31.264C93.7179 31.504 93.7819 31.744 93.8299 31.984C93.8939 32.224 93.9419 32.472 93.9739 32.728C94.0219 32.984 94.0539 33.256 94.0699 33.544H94.1419C94.1899 33.128 94.2539 32.736 94.3339 32.368C94.4299 31.984 94.5339 31.616 94.6459 31.264L97.0699 23.896H100.91L95.3659 38.68C95.0299 39.576 94.5899 40.328 94.0459 40.936C93.5179 41.544 92.9019 42 92.1979 42.304C91.4939 42.608 90.7259 42.76 89.8939 42.76C89.4939 42.76 89.1419 42.736 88.8379 42.688C88.5499 42.656 88.2939 42.616 88.0699 42.568V39.736C88.2459 39.768 88.4539 39.8 88.6939 39.832C88.9499 39.864 89.2139 39.88 89.4859 39.88C89.9819 39.88 90.4059 39.776 90.7579 39.568C91.1259 39.36 91.4299 39.072 91.6699 38.704C91.9099 38.352 92.1019 37.968 92.2459 37.552L92.4619 36.904L87.2539 23.896Z" fill="white"/>
<path d="M0.888 63V56.748H4.008C4.36 56.748 4.656 56.824 4.896 56.976C5.136 57.12 5.316 57.308 5.436 57.54C5.564 57.772 5.628 58.02 5.628 58.284C5.628 58.62 5.548 58.924 5.388 59.196C5.228 59.46 4.996 59.66 4.692 59.796C5.052 59.9 5.344 60.088 5.568 60.36C5.792 60.632 5.904 60.96 5.904 61.344C5.904 61.68 5.82 61.972 5.652 62.22C5.492 62.468 5.268 62.66 4.98 62.796C4.7 62.932 4.376 63 4.008 63H0.888ZM1.668 62.412H3.984C4.192 62.412 4.38 62.36 4.548 62.256C4.724 62.144 4.86 62 4.956 61.824C5.06 61.648 5.112 61.464 5.112 61.272C5.112 61.064 5.064 60.876 4.968 60.708C4.872 60.532 4.744 60.392 4.584 60.288C4.424 60.184 4.24 60.132 4.032 60.132H1.668V62.412ZM1.668 59.568H3.792C4 59.568 4.184 59.512 4.344 59.4C4.504 59.288 4.628 59.144 4.716 58.968C4.804 58.792 4.848 58.608 4.848 58.416C4.848 58.128 4.752 57.876 4.56 57.66C4.376 57.444 4.136 57.336 3.84 57.336H1.668V59.568ZM20.9765 63V56.064L17.8925 61.452H17.3645L14.2685 56.064V63H13.4285V54.48H14.2925L17.6165 60.312L20.9645 54.48H21.8165V63H20.9765ZM27.7942 63.12C27.3462 63.12 26.9302 63.036 26.5462 62.868C26.1702 62.692 25.8422 62.456 25.5622 62.16C25.2902 61.856 25.0782 61.512 24.9262 61.128C24.7742 60.736 24.6982 60.324 24.6982 59.892C24.6982 59.444 24.7742 59.028 24.9262 58.644C25.0782 58.252 25.2942 57.908 25.5742 57.612C25.8542 57.308 26.1822 57.072 26.5582 56.904C26.9422 56.728 27.3582 56.64 27.8062 56.64C28.2542 56.64 28.6662 56.728 29.0422 56.904C29.4182 57.072 29.7462 57.308 30.0262 57.612C30.3062 57.908 30.5222 58.252 30.6742 58.644C30.8262 59.028 30.9022 59.444 30.9022 59.892C30.9022 60.324 30.8262 60.736 30.6742 61.128C30.5222 61.512 30.3062 61.856 30.0262 62.16C29.7542 62.456 29.4262 62.692 29.0422 62.868C28.6662 63.036 28.2502 63.12 27.7942 63.12ZM25.5262 59.904C25.5262 60.368 25.6262 60.792 25.8262 61.176C26.0342 61.552 26.3102 61.852 26.6542 62.076C26.9982 62.292 27.3782 62.4 27.7942 62.4C28.2102 62.4 28.5902 62.288 28.9342 62.064C29.2782 61.84 29.5542 61.536 29.7622 61.152C29.9702 60.76 30.0742 60.336 30.0742 59.88C30.0742 59.416 29.9702 58.992 29.7622 58.608C29.5542 58.224 29.2782 57.92 28.9342 57.696C28.5902 57.472 28.2102 57.36 27.7942 57.36C27.3782 57.36 26.9982 57.476 26.6542 57.708C26.3182 57.94 26.0462 58.248 25.8382 58.632C25.6302 59.008 25.5262 59.432 25.5262 59.904ZM36.4189 63.12C35.9629 63.12 35.5429 63.036 35.1589 62.868C34.7829 62.692 34.4509 62.452 34.1629 62.148C33.8829 61.844 33.6629 61.496 33.5029 61.104C33.3509 60.712 33.2749 60.296 33.2749 59.856C33.2749 59.264 33.4069 58.724 33.6709 58.236C33.9349 57.748 34.3029 57.36 34.7749 57.072C35.2469 56.784 35.7909 56.64 36.4069 56.64C36.9909 56.64 37.5069 56.776 37.9549 57.048C38.4029 57.312 38.7349 57.672 38.9509 58.128L38.1589 58.38C37.9829 58.06 37.7349 57.812 37.4149 57.636C37.1029 57.452 36.7549 57.36 36.3709 57.36C35.9549 57.36 35.5749 57.468 35.2309 57.684C34.8869 57.9 34.6109 58.196 34.4029 58.572C34.2029 58.948 34.1029 59.376 34.1029 59.856C34.1029 60.328 34.2069 60.756 34.4149 61.14C34.6229 61.524 34.8989 61.832 35.2429 62.064C35.5869 62.288 35.9669 62.4 36.3829 62.4C36.6549 62.4 36.9149 62.352 37.1629 62.256C37.4189 62.16 37.6389 62.032 37.8229 61.872C38.0149 61.704 38.1429 61.524 38.2069 61.332L39.0109 61.572C38.8989 61.868 38.7109 62.136 38.4469 62.376C38.1909 62.608 37.8869 62.792 37.5349 62.928C37.1909 63.056 36.8189 63.12 36.4189 63.12ZM41.7208 63V56.748H42.5368V59.424H43.4728L45.5728 56.748H46.5088L44.1208 59.784L46.8088 63H45.8488L43.4728 60.18H42.5368V63H41.7208ZM49.3952 63V56.748H52.5152C52.8672 56.748 53.1632 56.824 53.4032 56.976C53.6432 57.12 53.8232 57.308 53.9432 57.54C54.0712 57.772 54.1352 58.02 54.1352 58.284C54.1352 58.62 54.0552 58.924 53.8952 59.196C53.7352 59.46 53.5032 59.66 53.1992 59.796C53.5592 59.9 53.8512 60.088 54.0752 60.36C54.2992 60.632 54.4112 60.96 54.4112 61.344C54.4112 61.68 54.3272 61.972 54.1592 62.22C53.9992 62.468 53.7752 62.66 53.4872 62.796C53.2072 62.932 52.8832 63 52.5152 63H49.3952ZM50.1752 62.412H52.4912C52.6992 62.412 52.8872 62.36 53.0552 62.256C53.2312 62.144 53.3672 62 53.4632 61.824C53.5672 61.648 53.6192 61.464 53.6192 61.272C53.6192 61.064 53.5712 60.876 53.4752 60.708C53.3792 60.532 53.2512 60.392 53.0912 60.288C52.9312 60.184 52.7472 60.132 52.5392 60.132H50.1752V62.412ZM50.1752 59.568H52.2992C52.5072 59.568 52.6912 59.512 52.8512 59.4C53.0112 59.288 53.1352 59.144 53.2232 58.968C53.3112 58.792 53.3552 58.608 53.3552 58.416C53.3552 58.128 53.2592 57.876 53.0672 57.66C52.8832 57.444 52.6432 57.336 52.3472 57.336H50.1752V59.568ZM59.9691 63.12C59.5211 63.12 59.1051 63.036 58.7211 62.868C58.3371 62.692 58.0051 62.456 57.7251 62.16C57.4451 61.856 57.2251 61.508 57.0651 61.116C56.9131 60.724 56.8371 60.304 56.8371 59.856C56.8371 59.272 56.9691 58.736 57.2331 58.248C57.5051 57.76 57.8771 57.372 58.3491 57.084C58.8211 56.788 59.3571 56.64 59.9571 56.64C60.5731 56.64 61.1091 56.788 61.5651 57.084C62.0291 57.38 62.3931 57.772 62.6571 58.26C62.9211 58.74 63.0531 59.268 63.0531 59.844C63.0531 59.908 63.0531 59.972 63.0531 60.036C63.0531 60.092 63.0491 60.136 63.0411 60.168H57.6891C57.7291 60.616 57.8531 61.016 58.0611 61.368C58.2771 61.712 58.5531 61.988 58.8891 62.196C59.2331 62.396 59.6051 62.496 60.0051 62.496C60.4131 62.496 60.7971 62.392 61.1571 62.184C61.5251 61.976 61.7811 61.704 61.9251 61.368L62.6331 61.56C62.5051 61.856 62.3091 62.124 62.0451 62.364C61.7811 62.604 61.4691 62.792 61.1091 62.928C60.7571 63.056 60.3771 63.12 59.9691 63.12ZM57.6651 59.58H62.2851C62.2531 59.124 62.1291 58.724 61.9131 58.38C61.7051 58.036 61.4291 57.768 61.0851 57.576C60.7491 57.376 60.3771 57.276 59.9691 57.276C59.5611 57.276 59.1891 57.376 58.8531 57.576C58.5171 57.768 58.2411 58.04 58.0251 58.392C57.8171 58.736 57.6971 59.132 57.6651 59.58Z" fill="white"/>
</svg>
